<svg width="97" height="35" viewBox="0 0 97 35" fill="none" xmlns="http://www.w3.org/2000/svg">
<path d="M16.2605 34.0747L13.2924 34.0357V15.2781L9.56473 25.8461L7.05405 26.2609L5.49469 20.1467L4.01108 13.5044L4.79352 19.9122L4.46119 33.924L0.790039 33.8777C0.790039 33.2473 1.34699 1.08244 1.34699 1.08244H3.79835L7.94605 19.4961L7.72053 22.9219L12.2653 1.08244H15.385L16.2605 34.0747ZM31.2943 5.14246L31.9889 15.7033L31.5854 26.1734L28.8894 33.3111L22.9898 34.0747L19.1607 27.0037L19.1378 9.71617C19.0173 9.26596 20.7831 2.74209 20.7831 2.74209L25.8985 0.477539L28.2311 1.07176L23.7721 3.93686L21.1162 9.8247L21.1993 22.3179C21.1993 22.3179 23.0399 29.6394 23.2271 29.6394C23.4144 29.6394 25.6383 31.6214 25.6383 31.6214L27.8952 29.866L29.7056 23.7139L30.4945 15.4484L29.125 8.76788L25.9715 9.37203L24.0213 16.0913L24.6851 19.2988L27.0086 18.7326L25.9195 14.6944L27.4442 14.3547C27.4442 14.3547 28.0668 19.2797 28.0668 19.4499C28.0668 19.5731 26.5111 27.1491 26.5111 27.1491L25.2038 28.4517L24.0836 21.8846L23.1496 16.0918L24.4569 7.27796L28.8301 2.76246L31.2943 5.14246ZM46.0732 0.929598L44.4025 11.5703H42.3365L44.3231 12.0749L40.8675 34.0739L38.8917 33.9254L32.9492 0.929196H36.7462L39.2195 20.3698L39.7682 25.6379L39.5911 22.108L42.6031 0.929077H46.0733L46.0732 0.929598ZM54.5544 31.0836L56.4681 31.0927L56.3348 34.0746L49.5443 34.0629L49.3918 31.3952L51.079 31.2829L51.2552 26.2247L50.9128 7.53919L50.5439 14.1219C50.4426 10.6879 50.364 6.81644 50.3129 4.33198L48.004 4.42799V1.15886L56.6774 1.09816L56.5441 4.18247L54.5128 4.15713L54.5544 31.0836ZM71.1967 24.2583C71.329 24.7112 71.3821 28.3346 71.1165 28.7867C70.8517 29.2396 66.6985 34.0194 66.6985 34.0194L64.4589 34.0647L62.4011 34.0729L62.832 29.6362L63.1342 26.6878L63.7204 23.9376L64.7237 21.5952L67.3285 23.1722L68.2013 27.088L66.6108 28.5454L65.5499 28.2619L66.9085 27.002L65.1519 24.8226L64.29 28.8987L64.3731 30.541L65.0523 31.3426L66.4666 31.1542L68.5546 29.0881L69.5269 25.2764L67.8808 21.9838L65.76 19.5307L63.6939 19.0497L62.5007 21.1232L61.7612 26.7737C61.7612 26.7737 61.3577 33.8617 61.3194 33.7984V33.8654L59.6404 34.0249C59.5081 33.9451 59.6404 1.10901 59.6404 1.10901L64.4119 1.67426L66.6652 3.48584L68.786 7.90172L68.5523 8.9398L67.5051 7.44882C67.5051 7.44882 65.1186 4.65521 64.8538 4.58005C64.589 4.5049 62.3795 4.05196 62.3795 4.05196L61.1863 6.76935V10.3926L63.749 12.053L65.7403 10.9207L66.6432 9.34001L64.8757 7.64163L63.6824 8.22677L64.9643 9.51036L64.2348 10.3972L62.4234 9.33651L62.7548 6.96324L63.4843 5.94417L66.2014 7.39616L68.367 9.98131L66.1356 13.7893L63.4843 14.8084L66.4003 16.62L68.7869 18.2051C68.7869 18.2051 70.1901 20.4361 70.3224 20.7759C70.4547 21.1156 71.0646 23.8049 71.197 24.2578L71.1967 24.2583ZM76.8858 30.9741L82.6887 30.677V33.9732L73.3945 34.0746L73.6328 20.8771L72.7782 1.12807L82.2969 1.10905L82.0403 4.33198L75.3079 4.16261L77.2416 4.68527L76.1259 15.0178L81.0151 15.3194L81.1666 18.9426L77.5046 19.0676L77.2673 17.2252L76.8858 30.9741ZM93.4279 5.60806L90.7063 4.2369L88.7662 5.48788L88.4886 8.30133L88.7991 9.90009C89.6718 10.9273 93.5593 17.016 93.5593 17.016L96.5266 22.2454C96.5266 22.2454 97.0159 28.6886 96.9995 29.0001C96.9831 29.3116 95.1059 33.2347 95.1059 33.2347L90.1687 34.0763L86.3386 32.3317L84.6413 29.2039L85.4511 23.6275L89.545 21.8575L92.1835 24.1646L92.5642 27.6991L90.6862 29.7806L88.2723 29.1329L88.4622 26.7552L89.9266 25.9436L89.8691 26.7932L88.9561 28.1329L90.4735 27.9119L91.099 25.728L89.4218 24.7116L87.9637 26.0993L87.4159 28.3684L87.6761 29.8684L91.3618 30.7841L93.1503 28.468L93.5776 26.9426L93.2735 23.2532L90.5721 17.744L87.1831 13.33L85.3991 7.56367L86.5403 2.7701L90.3064 0.870594L94.643 2.26007L96.0837 4.23651L96.1266 8.261L94.4148 11.0355L91.1646 10.934L89.472 8.10423L90.1914 6.10971L91.4468 5.71296L93.0729 7.04359L92.8181 8.261L91.361 7.61791L92.9039 9.60344L93.9675 8.3878L93.4279 5.60806Z" fill="#3DD2CC"/>
</svg>
